<?xml version="1.0" standalone="no"?>
<!DOCTYPE svg PUBLIC "-//W3C//DTD SVG 1.1//EN" "http://www.w3.org/Graphics/SVG/1.1/DTD/svg11.dtd" >
<svg>
<metadata>
Created by FontForge 20110222 at Mon Mar 23 07:48:33 2015
 By deploy user
Copyright (c) 2007 by ALS. All rights reserved.
</metadata>
<defs>
<font id="ALSRubl" horiz-adv-x="500" >
  <font-face 
    font-family="ALS Rubl"
    font-weight="400"
    font-stretch="normal"
    units-per-em="1000"
    panose-1="2 0 5 6 0 0 0 2 0 4"
    ascent="750"
    descent="-250"
    x-height="694"
    bbox="17 -26 822 750"
    underline-thickness="50"
    underline-position="-50"
    unicode-range="U+0020-00FF"
  />
<missing-glyph 
 />
    <glyph glyph-name=".notdef" 
 />
    <glyph glyph-name=".null" horiz-adv-x="0" 
 />
    <glyph glyph-name="nonmarkingreturn" horiz-adv-x="333" 
 />
    <glyph glyph-name="space" unicode=" " 
 />
    <glyph glyph-name="a" unicode="a" horiz-adv-x="760" 
d="M80 285v80h75v335h264q70 0 106 -6q75 -11 120 -65.5t45 -130.5q0 -90 -57 -152q-57 -61 -206 -61h-179v-62h405v-81h-405v-142h-93v142h-75v81h75v62h-75zM248 617v-250h180q88 0 126.5 32.5t38.5 95.5q0 44 -21.5 75t-58.5 41q-23 6 -87 6h-178z" />
    <glyph glyph-name="b" unicode="b" horiz-adv-x="571" 
d="M54 283l13 80h62l58 336h231q116 0 154 -71q19 -35 19 -101q0 -73 -34 -135t-89 -85q-54 -24 -132 -24h-144l-10 -60h333l-14 -80h-333l-24 -143h-77l25 143h-62l13 80h62l10 60h-61zM251 623l-45 -260h126q67 0 102 17t58 56q24 40 24 89q0 70 -44 88q-20 10 -75 10
h-146z" />
    <glyph glyph-name="c" unicode="c" horiz-adv-x="753" 
d="M70 264v118h81v319h227q127 0 169 -11q63 -16 102 -70t39 -135q0 -89 -46.5 -143t-109.5 -68q-49 -10 -147 -10h-92v-60h365v-118h-365v-86h-142v86h-81v118h81v60h-81zM361 582h-68v-199h77q82 0 112 11q27 10 43.5 34t16.5 55q0 37 -22 62.5t-57 31.5q-28 5 -102 5z
" />
    <glyph glyph-name="d" unicode="d" horiz-adv-x="714" 
d="M72 267l27 116h89l66 317h289q211 0 211 -175q0 -52 -20 -102.5t-51 -81.5q-30 -30 -64.5 -45.5t-91.5 -24.5q-31 -4 -127 -4h-93l-14 -66h364l-25 -115h-363l-18 -86h-143l18 86h-96l27 115h93l14 66h-92zM374 585l-43 -202h45q113 0 152 14q36 14 59 45t23 71
q0 50 -43 64q-21 8 -90 8h-103z" />
    <glyph glyph-name="e" unicode="e" horiz-adv-x="709" 
d="M90 308v42h98v250q0 43 -28 52q-22 8 -70 13v35h321q96 0 157 -47q61 -48 61 -126q0 -108 -81 -167q-71 -52 -176 -52h-79v-50h309v-42h-309v-121q0 -39 29 -50q5 -3 31 -6l42 -4v-35h-301v35l34 3q21 1 32 7q28 12 28 50v121h-98v42h98v50h-98zM479 408q28 41 28 94
q0 68 -30 109q-36 48 -114 48h-70v-309h50q97 0 136 58z" />
    <glyph glyph-name="f" unicode="f" horiz-adv-x="664" 
d="M98 309l10 41h96l59 253q3 15 3 20q0 24 -19 32q-26 10 -66 12l7 33h311q85 0 137.5 -38t52.5 -103q0 -116 -94 -185q-86 -65 -210 -65h-84l-13 -53h314l-9 -40h-314l-29 -123q-2 -14 -2 -18q0 -24 20 -33q25 -9 70 -9l-7 -33h-301l7 33q51 3 69 9q30 11 39 51l28 123
h-97l10 40h97l12 53h-97zM531 425q37 52 37 123q0 52 -27 80q-32 34 -96 34h-64l-71 -312h56q114 0 165 75z" />
    <glyph glyph-name="g" unicode="g" horiz-adv-x="806" 
d="M80 301v47h102v246q0 37 -31 51q-26 11 -71 17v38h386q270 0 270 -176q0 -115 -91 -171q-83 -51 -230 -51h-57v-53h351v-47h-351v-98q0 -36 32 -51q20 -8 69 -15v-38h-379v38q6 1 23 3t30 4t18 4q18 8 24.5 19t6.5 32v102h-102v47h102v52h-102zM543 499q0 82 -32.5 119
t-111.5 37h-41v-307h21q164 0 164 151z" />
    <glyph glyph-name="h" unicode="h" horiz-adv-x="787" 
d="M99 301l9 44h105l55 240q4 19 4 28q0 20 -21 32t-68 19l8 36h380q241 0 241 -147q0 -125 -107 -190q-102 -62 -257 -62h-71l-11 -47h359l-10 -43h-360l-22 -99q-4 -15 -4 -28q0 -22 19 -32.5t71 -15.5l-9 -36h-380l8 36q21 0 38 3q23 3 35 8q36 12 44 49l26 115h-103
l10 43h103l11 47h-103zM617 551q0 55 -29 80.5t-93 25.5h-35l-72 -312h32q103 0 152 60q45 55 45 146z" />
    <glyph glyph-name="i" unicode="i" horiz-adv-x="683" 
d="M90 261v80h71v359h176q120 0 182 -44q84 -58 84 -167q0 -94 -62 -156q-72 -72 -208 -72h-79v-61h314v-80h-314v-120h-93v120h-71v80h71v61h-71zM506 486q0 75 -50 107q-40 27 -125 27h-77v-280h63q58 0 92 9t57 33q40 40 40 104z" />
    <glyph glyph-name="j" unicode="j" horiz-adv-x="744" 
d="M70 229v131h72v339h272q115 0 183 -46q82 -56 82 -175q0 -105 -59 -166q-40 -40 -87 -60q-54 -23 -123 -23h-93v-49h333v-131h-333v-49h-175v49h-72v131h72v49h-72zM499 474q0 29 -13.5 50t-34.5 31q-30 14 -109 14h-25v-210h13q64 0 85 3q35 5 54 24q18 17 24 36t6 52z
" />
    <glyph glyph-name="k" unicode="k" horiz-adv-x="648" 
d="M60 313v34h101v228q0 66 -14 83q-19 22 -60 22h-26v20h256q93 0 147.5 -19.5t91.5 -65.5t37 -108q0 -88 -57 -141t-159 -53h-118v-44h303v-34h-303v-111q0 -66 15 -82q20 -23 59 -23h27v-19h-299v19h26q44 0 64 29q10 16 10 76v111h-101v34h101v44h-101zM259 648v-301h85
q54 0 93 41q39 42 39 108q0 81 -39.5 121.5t-109.5 40.5q-28 0 -68 -10z" />
    <glyph glyph-name="l" unicode="l" horiz-adv-x="677" 
d="M129 324l9 35h78l53 182q20 69 20 96q0 20 -16 31t-63 13l6 19h275q109 0 162 -47q54 -47 54 -113q0 -55 -35 -105t-100 -80q-66 -31 -145 -31h-129l-15 -52h337l-8 -36h-340l-24 -86q-20 -69 -20 -90q0 -18 16 -28t65 -13l-6 -19h-278l6 19q55 0 75 19q22 19 47 104
l27 94h-70l9 36h72l15 52h-77zM393 653l-85 -294h98q122 0 175 93q26 47 26 97q0 53 -32.5 83t-96.5 30q-36 0 -85 -9z" />
    <glyph glyph-name="m" unicode="m" horiz-adv-x="702" 
d="M60 317v40h98v220q0 58 -7 71q-8 15 -25 24q-16 9 -65 9v19h305q150 0 215 -54q66 -54 66 -134q0 -68 -42 -116t-117 -66q-54 -13 -168 -13v-45h306v-40h-306v-109q0 -60 6 -72q6 -13 25 -23q18 -9 65 -9v-19h-355v19q75 0 90 32q7 14 7 72v109h-98v40h98v45h-98z
M341 660h-21v-303h25q131 0 131 152q0 151 -135 151z" />
    <glyph glyph-name="n" unicode="n" horiz-adv-x="707" 
d="M99 313l13 44h99l62 214q13 42 13 64q0 42 -78 46l5 19h277q116 0 165 -29q77 -44 77 -136q0 -87 -77 -155q-76 -67 -208 -67h-98l-17 -59h307l-12 -44h-308l-24 -84q-13 -44 -13 -58q0 -25 17 -36t70 -13l-7 -19h-342l6 19q41 1 59.5 8.5t31.5 25.5q9 12 27 73l24 84
h-98l11 44h100l17 59h-99zM447 658l-85 -301h55q71 0 112 65t41 136q0 48 -26.5 74t-72.5 26h-24z" />
    <glyph glyph-name="o" unicode="o" horiz-adv-x="634" 
d="M141 0v137h-66v71h66v70h-66v71h66v352h227q84 0 140 -44.5t56 -137.5q0 -240 -319 -240h-11v-71h310v-71h-310v-137h-93zM234 631v-282h32q199 0 199 162q0 61 -36.5 90.5t-85.5 29.5h-109z" />
    <glyph glyph-name="p" unicode="p" horiz-adv-x="740" 
d="M70 278v110h66v335h323q106 0 161 -45t55 -148q0 -111 -67 -180.5t-185 -69.5h-106v-43h292v-110h-292v-127h-181v127h-66v110h66v41h-66zM317 596v-208q25 0 43.5 1.5t43 9t40 20.5t27 37.5t11.5 58.5q0 88 -108 88q-24 0 -57 -7z" />
    <glyph glyph-name="q" unicode="q" horiz-adv-x="639" 
d="M60 260v80h66v360h189q121 0 185 -44q84 -57 84 -167q0 -96 -62 -156q-72 -72 -210 -72h-93v-67h336v-79h-336v-115h-93v115h-66v79h66v66h-66zM487 486q0 72 -51 106q-43 28 -125 28h-92v-280h78q104 0 150 43q40 40 40 103z" />
    <glyph glyph-name="r" unicode="r" horiz-adv-x="615" 
d="M54 263l17 75h74l84 363h185q117 0 174 -44q57 -43 57 -125q0 -120 -95 -198q-84 -71 -226 -71h-102l-17 -73h355l-16 -76h-357l-26 -114h-94l26 114h-73l17 76h74l17 73h-74zM545 516q0 55 -33 79q-37 29 -119 29h-87l-67 -286h84q108 0 159 44q63 53 63 134z" />
    <glyph glyph-name="s" unicode="s" horiz-adv-x="829" 
d="M60 244v141h95v365h319q131 0 207 -49q93 -59 93 -188q0 -111 -68 -179q-47 -46 -102.5 -68t-134.5 -22h-120v-45h386v-142h-386v-57h-194v57h-95v142h95v45h-95zM574 509q0 29 -16.5 52.5t-40.5 33.5q-34 15 -135 15h-33v-225h55q99 0 135 31q35 29 35 93z" />
    <glyph glyph-name="t" unicode="t" horiz-adv-x="797" 
d="M75 228l31 133h102l79 340h252q142 0 208 -42q75 -47 75 -152q0 -125 -104 -202t-290 -77h-69l-10 -43h378l-29 -132h-379l-12 -53h-182l12 53h-102l30 132h102l10 43h-102zM629 490q0 80 -118 80h-73l-48 -210h65q82 0 128 33.5t46 96.5z" />
    <glyph glyph-name="u" unicode="u" horiz-adv-x="709" 
d="M170 0v106h-120v100h120v80h-120v100h120v314h267q51 0 90 -12q40 -12 71 -39q66 -57 66 -156t-66 -156q-31 -27 -71 -39q-39 -12 -90 -12h-99v-80h288v-100h-288v-106h-168zM338 566v-180h56q38 0 57 11q39 21 39 79t-39 79q-15 8 -29 9q-14 2 -28 2h-56z" />
    <glyph glyph-name="v" unicode="v" horiz-adv-x="633" 
d="M70 694h274q93 0 147 -27q82 -43 82 -147q0 -94 -66 -151q-68 -59 -196 -59h-52v-60h300v-38h-300v-157l105 -18v-37h-294v37l96 18v157h-96v38h96v60h-96v38h96v291l-96 18v37zM259 348h47q93 0 134 44q33 36 33 103q0 85 -53 126q-44 35 -127 35h-34v-308z" />
    <glyph glyph-name="w" unicode="w" horiz-adv-x="776" 
d="M327 256l-23 -66q99 -8 235 -6q42 0 62 2q22 2 33 2q31 0 31 -26q0 -11 -7 -18t-22.5 -9t-28 -2.5t-37 0.5t-35.5 1q-82 0 -246 10l-22 -67q-7 -22 -7.5 -34t3 -20t3.5 -15q0 -34 -34 -34q-13 0 -23 11t-10 30q0 35 16 75l20 56q-96 3 -121 3q-54 0 -54 30
q0 18 16.5 27.5t48.5 -3.5q68 -9 126 -10l25 70q-38 2 -59 4q-43 4 -63 5q-55 3 -55 32q0 18 16.5 27.5t48.5 -3.5q67 -12 126 -16l14 38q51 138 102 249q19 42 53 42q10 0 18 -6t6.5 -25t-21.5 -47q-10 -14 -19.5 -30t-16.5 -28.5t-15.5 -31t-12.5 -27.5t-12 -28.5
t-10 -24.5q-22 -51 -32 -88q40 -5 77 -5q89 0 153 30t95 81t31 100q0 64 -53 111q-66 59 -197 59q-145 0 -254 -68q-57 -35 -57 -72q0 -44 77 -48q32 -2 32 -21q0 -21 -34 -21q-59 0 -94 24q-35 25 -35 62q0 70 90 122q118 68 280 68q165 0 247 -84q54 -55 54 -128
q0 -68 -40.5 -131t-118.5 -97t-191 -34q-43 0 -79 3z" />
    <glyph glyph-name="x" unicode="x" horiz-adv-x="676" 
d="M316 91v-91h-219v91h-80v44l18 45h62v39h-80v45l18 44h62v392h437q39 0 63.5 -24.5t24.5 -62.5v-306q0 -38 -24.5 -63t-63.5 -25h-218v-39h212v-45l-17 -44h-195zM316 524v-129h87v129h-87z" />
    <glyph glyph-name="ydieresis" unicode="&#xff;" horiz-adv-x="833" 
 />
  </font>
</defs>
</svg>
